<svg width="28" height="27" viewBox="0 0 28 27" fill="none" xmlns="http://www.w3.org/2000/svg">
<path d="M15.293 27H11.918C10.7051 27 9.80859 26.1035 9.80859 24.8906V20.0391L5.00977 22.5176C4.00781 23.0977 2.68945 22.7285 2.10938 21.7266L0.369141 18.8262C0.105469 18.3516 0 17.7715 0.158203 17.1914C0.316406 16.6641 0.632812 16.1895 1.16016 15.9258L5.43164 13.5L1.16016 11.127C0.632812 10.8633 0.316406 10.3887 0.158203 9.86133C0 9.28125 0.105469 8.70117 0.369141 8.22656L2.10938 5.32617C2.68945 4.32422 3.95508 3.95508 5.00977 4.53516L9.80859 7.01367V2.10938C9.80859 0.949219 10.7051 0 11.918 0H15.293C16.4531 0 17.4023 0.949219 17.4023 2.10938V7.01367L22.1484 4.53516C23.2031 3.95508 24.4688 4.32422 25.0488 5.32617L26.7891 8.22656C27.0527 8.70117 27.1582 9.28125 27 9.86133C26.8418 10.3887 26.5254 10.8633 25.998 11.127L21.7266 13.5L25.998 15.9258C26.5254 16.1895 26.8418 16.6641 27 17.1914C27.1582 17.7715 27.0527 18.3516 26.7891 18.8262L25.0488 21.7266C24.4688 22.7285 23.2031 23.0977 22.1484 22.5176L17.4023 20.0391V24.8906C17.3496 26.1035 16.4531 27 15.293 27ZM12.3398 24.4688H14.8711V15.7148L23.0977 20.1445L24.3633 17.9297L16.1895 13.5L24.3633 9.12305L23.0977 6.9082L14.8711 11.3379V2.53125H12.3398V11.3379L4.06055 6.9082L2.79492 9.12305L10.9688 13.5L2.79492 17.9297L4.06055 20.1445L12.3398 15.7148V24.4688Z" fill="white"/>
</svg>
